<svg width="8" height="12" viewBox="0 0 8 12" fill="none" xmlns="http://www.w3.org/2000/svg">
<path d="M3.06934 11.874V10.958C2.14421 10.8896 1.40365 10.6094 0.847656 10.1172C0.287109 9.625 0.00455729 8.99837 0 8.2373H1.16895C1.2054 8.69303 1.38997 9.06673 1.72266 9.3584C2.05534 9.65007 2.50423 9.83008 3.06934 9.89844V6.34375L2.52246 6.19336C1.78874 6.00195 1.22591 5.6875 0.833984 5.25C0.4375 4.8125 0.239258 4.27702 0.239258 3.64355C0.239258 2.89616 0.492188 2.2832 0.998047 1.80469C1.50391 1.32617 2.19434 1.04362 3.06934 0.957031V0H3.98535V0.950195C4.83757 1.02311 5.52572 1.30339 6.0498 1.79102C6.56934 2.27865 6.84049 2.8916 6.86328 3.62988H5.70117C5.6875 3.20605 5.52572 2.84603 5.21582 2.5498C4.90137 2.24902 4.49121 2.06901 3.98535 2.00977V5.35254L4.56641 5.49609C6.21159 5.93359 7.03418 6.81771 7.03418 8.14844C7.03418 8.95508 6.7653 9.60449 6.22754 10.0967C5.69434 10.5889 4.94694 10.8737 3.98535 10.9512V11.874H3.06934ZM5.85156 8.24414C5.85156 7.36458 5.22949 6.79264 3.98535 6.52832V9.91895C4.5778 9.88704 5.03809 9.72526 5.36621 9.43359C5.68978 9.14193 5.85156 8.74544 5.85156 8.24414ZM1.41504 3.5752C1.41504 4.39551 1.96647 4.92188 3.06934 5.1543V2.00977C2.59082 2.03711 2.19661 2.19661 1.88672 2.48828C1.57227 2.78451 1.41504 3.14681 1.41504 3.5752Z" fill="#8A8F99"/>
</svg>
